{"title":"Exploited.College.Girls.Layla.Firts.Hard.Fuck.xXx.2014.H263.NEW-","uid":10636348,"size":879746656,"categoryP":"porn","categoryS":"movie_clips","magnet":"?xt=urn:btih:132bd2d3c20717793a63759821b97bad033407da&amp;dn=Exploited.College.Girls.Layla.Firts.Hard.Fuck.xXx.2014.H263.NEW-&amp;tr=udp%3A%2F%2Ftracker.openbittorrent.com%3A80&amp;tr=udp%3A%2F%2Fopen.demonii.com%3A1337&amp;tr=udp%3A%2F%2Ftracker.coppersurfer.tk%3A6969&amp;tr=udp%3A%2F%2Fexodus.desync.com%3A6969","seeders":1,"leechers":0,"uploader":null,"files":-1,"time":1406393609,"description":"After Layla gets situated on the bed, she still can't keep her hands out from between her legs so Jay cuts the small talk and gets down to business with the Rabbit. It doesn't take long for him to focus in on her clit with the tip of the Rabbit and bring her to a quick, vocal orgasm and then a second one a few moments later. After letting her catch her breath, Jay has her get to her knees for a little face fucking. It seems like he's dying to get back at that wet pussy and he switches to some proper p in v fucking with Layla on her back and her legs in the air which gets her to a third orgasm.\n\nGeneral\nComplete name                    : Exploited.College.Girls.Layla.Firts.Hard.Fuck.xXx.2014.H263.NEW-iBENI.mp4\nFormat                           : MPEG-4\nFormat profile                   : Base Media\nCodec ID                         : isom\nFile size                        : 838 MiB\nDuration                         : 50mn 7s\nOverall bit rate                 : 2 337 Kbps\nEncoded date                     : UTC 2014-07-26 02:04:02\nTagged date                      : UTC 2014-07-26 02:04:02\n\n\nVideo\nID                               : 1\nFormat                           : MPEG-4 Visual\nFormat profile                   : Simple@L1\nFormat settings, BVOP            : No\nFormat settings, QPel            : No\nFormat settings, GMC             : No warppoints\nFormat settings, Matrix          : Default (H.263)\nCodec ID                         : 20\nDuration                         : 50mn 7s\nBit rate mode                    : Variable\nBit rate                         : 2 209 Kbps\nMaximum bit rate                 : 5 631 Kbps\nWidth                            : 768 pixels\nHeight                           : 432 pixels\nDisplay aspect ratio             : 16:9\nFrame rate mode                  : Constant\nFrame rate                       : 29.970 fps\nColor space                      : YUV\nChroma subsampling               : 4:2:0\nBit depth                        : 8 bits\nScan type                        : Progressive\nCompression mode                 : Lossy\nBits/(Pixel*Frame)               : 0.222\nStream size                      : 792 MiB (95%)\nWriting library                  : Lavc53.8.0\nEncoded date                     : UTC 2014-07-26 02:04:02\nTagged date                      : UTC 2014-07-26 02:04:42\n\nAudio\nID                               : 2\nFormat                           : AAC\nFormat/Info                      : Advanced Audio Codec\nFormat profile                   : LC\nCodec ID                         : 40\nDuration                         : 50mn 6s\nBit rate mode                    : Variable\nBit rate                         : 126 Kbps\nMaximum bit rate                 : 245 Kbps\nChannel(s)                       : 6 channels\nChannel positions                : Front: L C R, Side: L R, LFE\nSampling rate                    : 44.1 KHz\nCompression mode                 : Lossy\nStream size                      : 45.1 MiB (5%)\nEncoded date                     : UTC 2014-07-26 02:04:29\nTagged date                      : UTC 2014-07-26 02:04:42","torrent":{"xt":"urn:btih:132bd2d3c20717793a63759821b97bad033407da","amp;dn":"Exploited.College.Girls.Layla.Firts.Hard.Fuck.xXx.2014.H263.NEW-","amp;tr":["udp%3A%2F%2Ftracker.openbittorrent.com%3A80","udp%3A%2F%2Fopen.demonii.com%3A1337","udp%3A%2F%2Ftracker.coppersurfer.tk%3A6969","udp%3A%2F%2Fexodus.desync.com%3A6969"],"infoHash":"132bd2d3c20717793a63759821b97bad033407da","infoHashBuffer":{"type":"Buffer","data":[19,43,210,211,194,7,23,121,58,99,117,152,33,185,123,173,3,52,7,218]},"announce":[],"urlList":[]}}